<?xml version="1.0" encoding="UTF-8"?>
<svg version="1.1" xmlns="http://www.w3.org/2000/svg" width="500" height="500">
<path d="M0 0 C1.98 0 3.96 0 6 0 C5.53320403 10.54958897 3.02311848 20.094657 -3.4375 28.57421875 C-5.25320449 30.2310491 -6.59984314 30.61204361 -9 31 C-9 31.66 -9 32.32 -9 33 C-14.09914442 34.23615622 -18.97560615 34.67479795 -24 33 C-24.268125 33.639375 -24.53625 34.27875 -24.8125 34.9375 C-26 37 -26 37 -29 38 C-29 38.66 -29 39.32 -29 40 C-34.22771463 43.04157942 -37.92671312 44.50610724 -44 44 C-43.97679687 44.65484375 -43.95359375 45.3096875 -43.9296875 45.984375 C-43.60374195 62.46790717 -48.23061235 79.02651867 -55 94 C-55.66 94 -56.32 94 -57 94 C-57.11472656 94.57234375 -57.22945313 95.1446875 -57.34765625 95.734375 C-58.06182356 98.21471656 -59.07307872 100.06368697 -60.4375 102.25 C-60.86933594 102.95640625 -61.30117187 103.6628125 -61.74609375 104.390625 C-62.36677734 105.18726563 -62.36677734 105.18726563 -63 106 C-63.66 106 -64.32 106 -65 106 C-65.268125 106.639375 -65.53625 107.27875 -65.8125 107.9375 C-67 110 -67 110 -70 111 C-70 111.66 -70 112.32 -70 113 C-72.44921875 114.65625 -72.44921875 114.65625 -75.6875 116.5 C-76.74324219 117.1084375 -77.79898438 117.716875 -78.88671875 118.34375 C-89.322008 123.89527151 -103.5337656 125.2406855 -114.9375 121.875 C-120.47378899 119.65209609 -125.69948207 116.49265936 -128.5 111.125 C-128.665 110.42375 -128.83 109.7225 -129 109 C-129.66 109 -130.32 109 -131 109 C-138.64327088 90.05798087 -135.36651803 67.32059749 -127.6640625 48.78515625 C-126.81421195 46.91597628 -125.94570194 45.05505632 -125.05078125 43.20703125 C-123.90226939 40.91062992 -123.90226939 40.91062992 -123 38 C-121.02 38.33 -119.04 38.66 -117 39 C-116.641716 42.94112398 -117.58824413 45.44992543 -119.19921875 49.0078125 C-122.84411666 58.0756073 -123.90939545 70.25421765 -120.8125 79.5625 C-117.95560349 84.980752 -114.36613644 88.1676598 -109 91 C-98.32454024 93.79497989 -86.48591275 93.91199334 -76.375 89.0625 C-73.78153134 87.47760249 -71.40183869 85.84756823 -69 84 C-68.34 84 -67.68 84 -67 84 C-66.72929687 83.41347656 -66.45859375 82.82695312 -66.1796875 82.22265625 C-65.01342653 80.025297 -63.7138219 78.34326306 -62.125 76.4375 C-53.69738312 65.35826708 -52.75013888 51.10047044 -52.4375 37.6875 C-52.37739411 35.39963949 -52.31372863 33.11186906 -52.24609375 30.82421875 C-52.21020142 29.32507935 -52.21020142 29.32507935 -52.17358398 27.7956543 C-52.00687128 25.11066532 -51.59449453 22.62026833 -51 20 C-46.25 18.875 -46.25 18.875 -44 20 C-37.86508417 20.57376911 -33.38564846 20.23138908 -28 17 C-27.34 17 -26.68 17 -26 17 C-26 16.34 -26 15.68 -26 15 C-25.34 15 -24.68 15 -24 15 C-24 14.34 -24 13.68 -24 13 C-23.34 13 -22.68 13 -22 13 C-21.67 12.01 -21.34 11.02 -21 10 C-20.01 10.165 -19.02 10.33 -18 10.5 C-13.87002699 11.052897 -10.17085189 11.41024773 -6 11 C-2.49765774 7.86632535 -1.24742793 4.46995009 0 0 Z " fill="#EBEBE6" transform="translate(287,184)"/>
<path d="M0 0 C1.76949095 -0.10815225 3.54087487 -0.18566083 5.3125 -0.25 C6.29863281 -0.29640625 7.28476562 -0.3428125 8.30078125 -0.390625 C11 0 11 0 12.78125 1.8046875 C15.49319816 6.68967105 16.26973075 11.47051957 16 17 C16.66 17 17.32 17 18 17 C18.03738281 16.02417969 18.07476562 15.04835937 18.11328125 14.04296875 C18.17902344 12.77066406 18.24476563 11.49835938 18.3125 10.1875 C18.37050781 8.92292969 18.42851562 7.65835938 18.48828125 6.35546875 C19 3 19 3 20.25 1.0625 C22.53166996 -0.32279962 24.03692768 -0.30274227 26.6875 -0.1875 C27.89986328 -0.14689453 27.89986328 -0.14689453 29.13671875 -0.10546875 C29.75160156 -0.07066406 30.36648438 -0.03585938 31 0 C32.14193029 3.59398217 32.03311921 6.87506397 31.9375 10.625 C31.88082076 17.42650889 32.76054492 23.48733609 34.5546875 30.01953125 C35.31863807 33.41710089 35.16581348 36.51791686 35 40 C34.34 40.99 33.68 41.98 33 43 C30.87109375 43.328125 30.87109375 43.328125 28.4375 43.25 C27.63183594 43.23453125 26.82617188 43.2190625 25.99609375 43.203125 C24 43 24 43 23 42 C22.95936168 40.33382885 22.957279 38.66611905 23 37 C23.66 37 24.32 37 25 37 C24.67 30.07 24.34 23.14 24 16 C23.67 17.85625 23.34 19.7125 23 21.625 C22.814375 22.66914063 22.62875 23.71328125 22.4375 24.7890625 C22.01284203 27.90574865 21.92454794 30.85930812 22 34 C21.34 34 20.68 34 20 34 C20 34.66 20 35.32 20 36 C18.35 36 16.7 36 15 36 C15 35.34 15 34.68 15 34 C14.34 34 13.68 34 13 34 C10.67124241 29.24123449 9.68209825 25.35604114 9.25 20.08984375 C8.94057225 17.50322115 8.13114852 15.33770694 7 13 C4.39689413 20.80931762 5.6611713 28.68026015 9 36 C9.391875 36.99 9.78375 37.98 10.1875 39 C10.455625 39.66 10.72375 40.32 11 41 C7.53076119 43.31282587 6.07794425 43.42478586 2 43 C0.33203125 41.86328125 0.33203125 41.86328125 -1 40 C-2.09469924 31.68970255 -0.82600031 23.01101173 0.46362305 14.77490234 C1.0803335 10.45639381 0.73700796 7.94588028 -1 4 C-0.625 1.6875 -0.625 1.6875 0 0 Z " fill="#E5E5E0" transform="translate(253,233)"/>
<path d="M0 0 C7.26 0 14.52 0 22 0 C25 7 25 7 24 10 C22.9790625 9.566875 22.9790625 9.566875 21.9375 9.125 C18.67106907 7.87402645 15.37153877 6.92552045 12 6 C12 6.66 12 7.32 12 8 C11.34 8 10.68 8 10 8 C10 9.98 10 11.96 10 14 C10.721875 13.649375 11.44375 13.29875 12.1875 12.9375 C15.37605276 11.87464908 16.86992077 11.8156457 20 13 C22.09862498 15.89810116 22 17.28378861 22 21 C18.7 21 15.4 21 12 21 C11.217777 24.12889199 10.88566682 26.1400091 10.9375 29.25 C10.958125 30.4875 10.97875 31.725 11 33 C14.3863251 34.50930183 14.3863251 34.50930183 18 35 C17.649375 34.4225 17.29875 33.845 16.9375 33.25 C15.85082593 30.64198224 16.06934867 29.60582371 17 27 C19.3125 26.375 19.3125 26.375 22 26 C25 28 25 28 25.58203125 30.71484375 C25.65808594 31.77832031 25.73414063 32.84179688 25.8125 33.9375 C25.90144531 34.99839844 25.99039062 36.05929687 26.08203125 37.15234375 C26 40 26 40 24 43 C21.78515625 43.35644531 21.78515625 43.35644531 19.0625 43.328125 C18.08539063 43.32296875 17.10828125 43.3178125 16.1015625 43.3125 C14.56628906 43.2815625 14.56628906 43.2815625 13 43.25 C11.97648437 43.24484375 10.95296875 43.2396875 9.8984375 43.234375 C2.30854111 43.15427055 2.30854111 43.15427055 0 42 C0.16226074 41.31534668 0.32452148 40.63069336 0.49169922 39.92529297 C1.06421377 36.630447 1.12963205 33.53977857 1.1328125 30.1953125 C1.13410156 28.88949219 1.13539063 27.58367187 1.13671875 26.23828125 C1.13462402 25.5623291 1.1325293 24.88637695 1.13037109 24.18994141 C1.12503452 22.13827051 1.13032114 20.08682026 1.13671875 18.03515625 C1.13542969 16.72675781 1.13414062 15.41835937 1.1328125 14.0703125 C1.13168457 12.88195801 1.13055664 11.69360352 1.12939453 10.46923828 C1.03790239 6.39510068 1.03790239 6.39510068 0 0 Z " fill="#EAE9E4" transform="translate(289,233)"/>
<path d="M0 0 C7.26 0 14.52 0 22 0 C22 0.66 22 1.32 22 2 C22.66 2 23.32 2 24 2 C24 4.64 24 7.28 24 10 C23.01 10 22.02 10 21 10 C21 9.34 21 8.68 21 8 C18.03 7.34 15.06 6.68 12 6 C12 6.66 12 7.32 12 8 C11.34 8 10.68 8 10 8 C9.67 10.31 9.34 12.62 9 15 C9.99 15 10.98 15 12 15 C12 14.34 12 13.68 12 13 C15.465 12.505 15.465 12.505 19 12 C19.33 12.99 19.66 13.98 20 15 C20.66 15 21.32 15 22 15 C22 16.98 22 18.96 22 21 C17.05 21.495 17.05 21.495 12 22 C11.835 23.588125 11.67 25.17625 11.5 26.8125 C11.4071875 27.70582031 11.314375 28.59914063 11.21875 29.51953125 C10.95607599 32.08305099 10.95607599 32.08305099 11 35 C13.31 35 15.62 35 18 35 C17.34 32.69 16.68 30.38 16 28 C18.75 26.8125 18.75 26.8125 22 26 C24.1875 27.03125 24.1875 27.03125 26 29 C26.390625 32.13671875 26.390625 32.13671875 26.25 35.6875 C26.21390625 36.86699219 26.1778125 38.04648437 26.140625 39.26171875 C26.07101562 40.61716797 26.07101562 40.61716797 26 42 C23.49502996 43.25248502 21.79146726 43.11374406 18.9921875 43.09765625 C18.00605469 43.09443359 17.01992188 43.09121094 16.00390625 43.08789062 C14.97136719 43.07951172 13.93882812 43.07113281 12.875 43.0625 C11.31458984 43.05573242 11.31458984 43.05573242 9.72265625 43.04882812 C7.14838038 43.03701952 4.57421854 43.02055075 2 43 C0.94433594 41.15649414 0.94433594 41.15649414 0 39 C0.29390625 38.17371094 0.5878125 37.34742188 0.890625 36.49609375 C2.53190591 31.32374721 2.0302957 26.43700706 1.75 21.0625 C1.71003906 20.00353516 1.67007812 18.94457031 1.62890625 17.85351562 C1.36871525 12.21721597 0.66660625 7.37261226 -1 2 C-0.67 1.34 -0.34 0.68 0 0 Z " fill="#DCDBD7" transform="translate(316,233)"/>
<path d="M0 0 C4.10403363 -0.08694042 8.20783129 -0.14037149 12.3125 -0.1875 C13.47974609 -0.21263672 14.64699219 -0.23777344 15.84960938 -0.26367188 C16.96787109 -0.27333984 18.08613281 -0.28300781 19.23828125 -0.29296875 C20.26993408 -0.3086792 21.30158691 -0.32438965 22.36450195 -0.34057617 C25 0 25 0 26.81323242 1.2956543 C28.70896944 4.01816821 28.76385446 6.75299878 29 10 C28.67 10.66 28.34 11.32 28 12 C25.525 11.505 25.525 11.505 23 11 C23 10.01 23 9.02 23 8 C22.34 8 21.68 8 21 8 C21 7.34 21 6.68 21 6 C20.01 6.495 20.01 6.495 19 7 C17.54707837 12.40906969 18.06353257 17.84645312 18.375 23.375 C18.41882813 24.2825 18.46265625 25.19 18.5078125 26.125 C18.72512526 30.314307 19.02529481 34.44539388 19.6015625 38.6015625 C19.79878906 40.28378906 19.79878906 40.28378906 20 42 C18.25895647 43.74104353 15.92635979 43.21311272 13.5625 43.25 C12.57378906 43.27578125 11.58507812 43.3015625 10.56640625 43.328125 C9.71949219 43.21984375 8.87257813 43.1115625 8 43 C7.34 42.01 6.68 41.02 6 40 C6.49609375 38.22265625 6.49609375 38.22265625 7.4375 36.0625 C10.29407457 27.60603256 9.82688628 15.48065883 7 7 C6.34 6.67 5.68 6.34 5 6 C5 6.66 5 7.32 5 8 C4.34 8 3.68 8 3 8 C2.67 9.32 2.34 10.64 2 12 C0.68 11.67 -0.64 11.34 -2 11 C-2.16702456 6.65736138 -2.12999997 3.79039366 0 0 Z " fill="#DBDBD6" transform="translate(344,233)"/>
<path d="M0 0 C2.52542347 2.1180971 2.9228379 3.51498106 3.4375 6.75 C2.39922604 14.46289231 -1.57147451 19.18883949 -7.421875 24.109375 C-11.68977665 27.23916954 -16.26485526 29.65852685 -21 32 C-22.08087891 32.5878125 -22.08087891 32.5878125 -23.18359375 33.1875 C-25.49684107 34.22224289 -26.6618053 33.83506954 -29 33 C-29 32.34 -29 31.68 -29 31 C-24.52941176 27 -24.52941176 27 -22 27 C-22 26.34 -22 25.68 -22 25 C-21.34 25 -20.68 25 -20 25 C-20 24.34 -20 23.68 -20 23 C-18.03852126 21.61061923 -16.03833424 20.2739589 -14 19 C-14.226875 17.824375 -14.45375 16.64875 -14.6875 15.4375 C-15.24316886 10.88745788 -14.31602831 8.01444907 -12 4 C-8.27616615 -0.03415334 -5.42873929 -0.80425767 0 0 Z M-8 7 C-7.65555119 9.47266765 -7.65555119 9.47266765 -7 12 C-6.34 12.33 -5.68 12.66 -5 13 C-4.34 11.35 -3.68 9.7 -3 8 C-4.65 7.67 -6.3 7.34 -8 7 Z " fill="#DCDCD8" transform="translate(266,139)"/>
<path d="M0 0 C2.97 0.495 2.97 0.495 6 1 C6.35869161 4.94560769 5.40713672 7.45720698 3.796875 11.01953125 C0.15425094 20.0725234 0.42370104 30.38867635 0 40 C-0.99 39.67 -1.98 39.34 -3 39 C-3 37.68 -3 36.36 -3 35 C-3.66 35 -4.32 35 -5 35 C-5 34.34 -5 33.68 -5 33 C-5.66 33 -6.32 33 -7 33 C-6.67 34.32 -6.34 35.64 -6 37 C-6.99 37 -7.98 37 -9 37 C-9.66 37.66 -10.32 38.32 -11 39 C-11.26129008 33.35613436 -10.37819067 28.66016455 -8.8125 23.25 C-8.58981445 22.46230225 -8.36712891 21.67460449 -8.13769531 20.86303711 C-6.53280819 15.37141951 -4.55572667 10.20287767 -2.015625 5.06640625 C-0.88887482 2.891055 -0.88887482 2.891055 0 0 Z " fill="#E7E6E1" transform="translate(164,222)"/>
<path d="M0 0 C7.26 0 14.52 0 22 0 C25 7 25 7 24 10 C22.9790625 9.566875 22.9790625 9.566875 21.9375 9.125 C18.67106907 7.87402645 15.37153877 6.92552045 12 6 C12 6.66 12 7.32 12 8 C11.34 8 10.68 8 10 8 C10 9.98 10 11.96 10 14 C10.99 14.33 11.98 14.66 13 15 C12.34 15.66 11.68 16.32 11 17 C10.34 16.67 9.68 16.34 9 16 C8.67 17.32 8.34 18.64 8 20 C6.68 20.33 5.36 20.66 4 21 C3.67 25.62 3.34 30.24 3 35 C2.67 35 2.34 35 2 35 C1.97494385 34.18845459 1.9498877 33.37690918 1.92407227 32.54077148 C1.80754183 28.83954284 1.685075 25.13853319 1.5625 21.4375 C1.52318359 20.16068359 1.48386719 18.88386719 1.44335938 17.56835938 C1.40146484 16.32763672 1.35957031 15.08691406 1.31640625 13.80859375 C1.27974854 12.67220459 1.24309082 11.53581543 1.20532227 10.36499023 C0.99348142 6.89316818 0.49190294 3.44332055 0 0 Z " fill="#D5D6D1" transform="translate(289,233)"/>
<path d="M0 0 C2.1640625 -0.29296875 2.1640625 -0.29296875 4.625 -0.1875 C5.44226563 -0.16042969 6.25953125 -0.13335937 7.1015625 -0.10546875 C8.04128906 -0.05326172 8.04128906 -0.05326172 9 0 C10.14193029 3.59398217 10.03311921 6.87506397 9.9375 10.625 C9.88082076 17.42650889 10.76054492 23.48733609 12.5546875 30.01953125 C13.31863807 33.41710089 13.16581348 36.51791686 13 40 C12.34 40.99 11.68 41.98 11 43 C8.87109375 43.328125 8.87109375 43.328125 6.4375 43.25 C5.63183594 43.23453125 4.82617188 43.2190625 3.99609375 43.203125 C2 43 2 43 1 42 C0.95936168 40.33382885 0.957279 38.66611905 1 37 C1.66 37 2.32 37 3 37 C3 28.75 3 20.5 3 12 C3.33 12 3.66 12 4 12 C4 14.31 4 16.62 4 19 C5.32 18.67 6.64 18.34 8 18 C8 13.71 8 9.42 8 5 C6.68 5 5.36 5 4 5 C4 3.68 4 2.36 4 1 C2.02 1.66 0.04 2.32 -2 3 C-1.34 2.01 -0.68 1.02 0 0 Z " fill="#D5D5D0" transform="translate(275,233)"/>
<path d="M0 0 C3 1 3 1 4 3 C5.32 2.67 6.64 2.34 8 2 C8 4.31 8 6.62 8 9 C7.34 8.01 6.68 7.02 6 6 C3.39689413 13.80931762 4.6611713 21.68026015 8 29 C8.391875 29.99 8.78375 30.98 9.1875 32 C9.455625 32.66 9.72375 33.32 10 34 C6.53076119 36.31282587 5.07794425 36.42478586 1 36 C-0.66796875 34.85546875 -0.66796875 34.85546875 -2 33 C-3.45142642 22.2625658 -1.27603381 10.6867832 0 0 Z " fill="#D5D5D1" transform="translate(254,240)"/>
<path d="M0 0 C0.33 0 0.66 0 1 0 C1.44372713 11.14248127 -0.49763755 21.44621449 -4 32 C-4.66 32 -5.32 32 -6 32 C-6.66 31.34 -7.32 30.68 -8 30 C-10.23344065 30.19890456 -10.23344065 30.19890456 -12.625 30.875 C-13.44226563 31.07867187 -14.25953125 31.28234375 -15.1015625 31.4921875 C-15.72804687 31.65976562 -16.35453125 31.82734375 -17 32 C-16.68546875 31.46375 -16.3709375 30.9275 -16.046875 30.375 C-11.79667001 22.59149206 -9.90661112 14.58507578 -8 6 C-7.67 6.66 -7.34 7.32 -7 8 C-6.34 8 -5.68 8 -5 8 C-5 7.34 -5 6.68 -5 6 C-4.01 6 -3.02 6 -2 6 C-1.34 4.02 -0.68 2.04 0 0 Z " fill="#E0E0DB" transform="translate(242,229)"/>
<path d="M0 0 C0 1.32 0 2.64 0 4 C1.32 4 2.64 4 4 4 C4 8.29 4 12.58 4 17 C2.68 17.33 1.36 17.66 0 18 C0 15.69 0 13.38 0 11 C-0.66 11 -1.32 11 -2 11 C-2.33 14.96 -2.66 18.92 -3 23 C-5.475 22.01 -5.475 22.01 -8 21 C-8.07778873 16.17709854 -8.05139712 11.37784466 -7.75 6.5625 C-7.70359375 5.73878906 -7.6571875 4.91507813 -7.609375 4.06640625 C-7 2 -7 2 -5.140625 0.71484375 C-3 0 -3 0 0 0 Z " fill="#E4E3DE" transform="translate(279,234)"/>
<path d="M0 0 C1.9375 1.625 1.9375 1.625 3 4 C3.1875 7.25 3.1875 7.25 3 10 C2.67 10 2.34 10 2 10 C1.67 8.35 1.34 6.7 1 5 C0.01 5.33 -0.98 5.66 -2 6 C-2 6.66 -2 7.32 -2 8 C-4.97 7.505 -4.97 7.505 -8 7 C-7.34 8.65 -6.68 10.3 -6 12 C-5.01 11.34 -4.02 10.68 -3 10 C-2.67 10.99 -2.34 11.98 -2 13 C-5.6441774 15.4294516 -7.71241272 15.16179575 -12 15 C-11.938125 15.763125 -11.87625 16.52625 -11.8125 17.3125 C-12 20 -12 20 -13.5 21.8125 C-13.995 22.204375 -14.49 22.59625 -15 23 C-15.99 22.67 -16.98 22.34 -18 22 C-16.68 21.01 -15.36 20.02 -14 19 C-14.226875 17.824375 -14.45375 16.64875 -14.6875 15.4375 C-15.24316886 10.88745788 -14.31602831 8.01444907 -12 4 C-8.27616615 -0.03415334 -5.42873929 -0.80425767 0 0 Z " fill="#BBBCB8" transform="translate(266,139)"/>
<path d="M0 0 C2.97 0.495 2.97 0.495 6 1 C6.35650085 4.92150933 5.44779216 7.42493102 3.80078125 10.953125 C2.28914157 14.81702349 1.69716228 18.92365116 1 23 C0.34 21.68 -0.32 20.36 -1 19 C-1.33 19.33 -1.66 19.66 -2 20 C-2.66 20 -3.32 20 -4 20 C-4.33 20.66 -4.66 21.32 -5 22 C-5.66 21.67 -6.32 21.34 -7 21 C-7.33 22.32 -7.66 23.64 -8 25 C-7.50067189 17.84296372 -4.67866127 11.59234392 -2 5 C-1.33294611 3.33348827 -0.66613244 1.66688026 0 0 Z " fill="#D2D1CE" transform="translate(164,222)"/>
<path d="M0 0 C0.22211116 1.93596892 0.42722992 3.87389328 0.625 5.8125 C0.79902344 7.43091797 0.79902344 7.43091797 0.9765625 9.08203125 C1 12 1 12 -1 15 C-3.24658203 15.34057617 -3.24658203 15.34057617 -6.0078125 15.29296875 C-6.99394531 15.28330078 -7.98007812 15.27363281 -8.99609375 15.26367188 C-10.02863281 15.23853516 -11.06117188 15.21339844 -12.125 15.1875 C-13.68541016 15.16719727 -13.68541016 15.16719727 -15.27734375 15.14648438 C-17.85207627 15.11105228 -20.4257833 15.06165221 -23 15 C-23 14.67 -23 14.34 -23 14 C-21.92878906 13.95101563 -20.85757812 13.90203125 -19.75390625 13.8515625 C-18.35674361 13.77654706 -16.9596095 13.7009987 -15.5625 13.625 C-14.85544922 13.5940625 -14.14839844 13.563125 -13.41992188 13.53125 C-11.60760812 13.42719371 -9.80182012 13.22080108 -8 13 C-7.67 12.34 -7.34 11.68 -7 11 C-6.34 11 -5.68 11 -5 11 C-5 10.01 -5 9.02 -5 8 C-5.66 7.67 -6.32 7.34 -7 7 C-8.4745318 4.74939883 -9.04434292 3.51733411 -8.8125 0.8125 C-8.544375 0.214375 -8.27625 -0.38375 -8 -1 C-4.37673261 -2.2077558 -3.35853631 -1.54311128 0 0 Z " fill="#D6D7D3" transform="translate(314,261)"/>
<path d="M0 0 C0.98871094 -0.01417969 1.97742188 -0.02835938 2.99609375 -0.04296875 C5.5625 0.1875 5.5625 0.1875 7.5625 2.1875 C7.7578125 4.5703125 7.7578125 4.5703125 7.6875 7.3125 C7.66945313 8.22257813 7.65140625 9.13265625 7.6328125 10.0703125 C7.60960937 10.76898438 7.58640625 11.46765625 7.5625 12.1875 C5.5825 13.1775 5.5825 13.1775 3.5625 14.1875 C3.5625 12.5375 3.5625 10.8875 3.5625 9.1875 C1.9125 9.8475 0.2625 10.5075 -1.4375 11.1875 C-1.4375 10.1975 -1.4375 9.2075 -1.4375 8.1875 C-2.7575 7.8575 -4.0775 7.5275 -5.4375 7.1875 C-5.81883299 5.1960944 -6.15075582 3.19470923 -6.4375 1.1875 C-4.69900372 -0.55099628 -2.3588363 0.01533704 0 0 Z " fill="#E2E2DE" transform="translate(258.4375,232.8125)"/>
<path d="M0 0 C7.26 0 14.52 0 22 0 C25 7 25 7 24 10 C22.9790625 9.566875 22.9790625 9.566875 21.9375 9.125 C18.67106907 7.87402645 15.37153877 6.92552045 12 6 C12 6.66 12 7.32 12 8 C10 7 10 7 9 4 C9 3.01 9 2.02 9 1 C7.02 2.32 5.04 3.64 3 5 C3.33 3.68 3.66 2.36 4 1 C3.01 1 2.02 1 1 1 C0.67 2.32 0.34 3.64 0 5 C0 3.35 0 1.7 0 0 Z " fill="#E9E8E7" transform="translate(289,233)"/>
<path d="M0 0 C2.1640625 -0.29296875 2.1640625 -0.29296875 4.625 -0.1875 C5.44226563 -0.16042969 6.25953125 -0.13335937 7.1015625 -0.10546875 C8.04128906 -0.05326172 8.04128906 -0.05326172 9 0 C10.19812475 3.72541915 10.06493713 7.2368893 10 11.125 C9.73561436 15.72725335 9.73561436 15.72725335 11 20 C11.13415472 22.6723621 11.04318541 25.32250488 11 28 C9.68 28 8.36 28 7 28 C6.34 27.34 5.68 26.68 5 26 C5 24.68 5 23.36 5 22 C4.67 21.34 4.34 20.68 4 20 C4 22.64 4 25.28 4 28 C3.67 28 3.34 28 3 28 C3 22.72 3 17.44 3 12 C3.33 12 3.66 12 4 12 C4 14.31 4 16.62 4 19 C5.32 18.67 6.64 18.34 8 18 C8 13.71 8 9.42 8 5 C6.68 5 5.36 5 4 5 C4 3.68 4 2.36 4 1 C2.02 1.66 0.04 2.32 -2 3 C-1.34 2.01 -0.68 1.02 0 0 Z " fill="#CFCFCA" transform="translate(275,233)"/>
<path d="M0 0 C2.60478883 -0.0809313 5.20706653 -0.14045434 7.8125 -0.1875 C8.55048828 -0.21263672 9.28847656 -0.23777344 10.04882812 -0.26367188 C15.48560734 -0.33747431 15.48560734 -0.33747431 17.96484375 1.2890625 C19.64277678 4.06240086 19.76836843 6.8150659 20 10 C19.67 10.66 19.34 11.32 19 12 C16.525 11.505 16.525 11.505 14 11 C14 10.01 14 9.02 14 8 C13.34 8 12.68 8 12 8 C12 7.34 12 6.68 12 6 C11.01 6.33 10.02 6.66 9 7 C9 6.34 9 5.68 9 5 C8.34 5 7.68 5 7 5 C7 4.34 7 3.68 7 3 C7.66 3 8.32 3 9 3 C9 2.34 9 1.68 9 1 C8.01 1.33 7.02 1.66 6 2 C3.99124558 1.72428861 1.98821313 1.39764263 0 1 C0 0.67 0 0.34 0 0 Z " fill="#CCCCC9" transform="translate(353,233)"/>
<path d="M0 0 C1.98 0 3.96 0 6 0 C5.88512252 1.58409994 5.75765492 3.16728963 5.625 4.75 C5.55539062 5.63171875 5.48578125 6.5134375 5.4140625 7.421875 C5.00149945 9.99066382 4.28839043 11.75841015 3 14 C2.34 13.34 1.68 12.68 1 12 C0.175 12.165 -0.65 12.33 -1.5 12.5 C-2.325 12.665 -3.15 12.83 -4 13 C-4.66 12.34 -5.32 11.68 -6 11 C-5.38125 10.29875 -4.7625 9.5975 -4.125 8.875 C-1.9572991 5.94222819 -0.97344445 3.48817594 0 0 Z M-6 13 C-6 16 -6 16 -6 16 Z " fill="#D1D1CE" transform="translate(287,184)"/>
<path d="M0 0 C0.87890625 6.15234375 0.87890625 6.15234375 1 8 C-0.74104353 9.74104353 -3.07364021 9.21311272 -5.4375 9.25 C-6.42621094 9.27578125 -7.41492188 9.3015625 -8.43359375 9.328125 C-9.28050781 9.21984375 -10.12742187 9.1115625 -11 9 C-11.66 8.01 -12.32 7.02 -13 6 C-12.125 3.3125 -12.125 3.3125 -11 1 C-9.68 1.99 -8.36 2.98 -7 4 C-7 3.34 -7 2.68 -7 2 C-4 0 -4 0 0 0 Z " fill="#D3D3CF" transform="translate(363,267)"/>
<path d="M0 0 C2.64 0 5.28 0 8 0 C6.02 0.99 6.02 0.99 4 2 C4 2.66 4 3.32 4 4 C4.99 4.33 5.98 4.66 7 5 C7 4.34 7 3.68 7 3 C7.99 3.33 8.98 3.66 10 4 C9.67 5.98 9.34 7.96 9 10 C7.68 8.68 6.36 7.36 5 6 C5 6.66 5 7.32 5 8 C4.34 8 3.68 8 3 8 C2.67 9.32 2.34 10.64 2 12 C0.68 11.67 -0.64 11.34 -2 11 C-2.28571429 3.57142857 -2.28571429 3.57142857 0 0 Z " fill="#D2D1CF" transform="translate(344,233)"/>
<path d="M0 0 C2.09862498 2.89810116 2 4.28378861 2 8 C-1.3 8 -4.6 8 -8 8 C-7.649375 7.05125 -7.29875 6.1025 -6.9375 5.125 C-5.64973223 2.12939828 -5.64973223 2.12939828 -7 0 C-4.25509788 -1.37245106 -2.87939419 -0.93580311 0 0 Z " fill="#C7C8C4" transform="translate(309,246)"/>
<path d="M0 0 C3 1 3 1 4 3 C5.32 2.67 6.64 2.34 8 2 C8 4.31 8 6.62 8 9 C7.34 8.01 6.68 7.02 6 6 C4.83786496 9.48640512 5.00889898 12.21357548 5.16015625 15.84375 C5 18 5 18 3 21 C2.67 16.71 2.34 12.42 2 8 C1.01 8.495 1.01 8.495 0 9 C0 6.03 0 3.06 0 0 Z " fill="#CCCCC7" transform="translate(254,240)"/>
<path d="M0 0 C0.99 0.33 1.98 0.66 3 1 C4 4 4 4 2.8125 7.5 C1 11 1 11 -3 14 C-3 10.04 -3 6.08 -3 2 C-2.01 2 -1.02 2 0 2 C0 1.34 0 0.68 0 0 Z " fill="#F5F4F0" transform="translate(322,254)"/>
<path d="M0 0 C0.99 0.33 1.98 0.66 3 1 C2.67 2.65 2.34 4.3 2 6 C2.61875 6.12375 3.2375 6.2475 3.875 6.375 C6 7 6 7 8 9 C7.8125 11.0625 7.8125 11.0625 7 13 C4 14 4 14 0 13 C0 8.71 0 4.42 0 0 Z " fill="#F0F1EA" transform="translate(279,253)"/>
<path d="M0 0 C4.95 0 9.9 0 15 0 C14.67 1.65 14.34 3.3 14 5 C15.32 5.33 16.64 5.66 18 6 C16.02 6 14.04 6 12 6 C12 6.66 12 7.32 12 8 C10 7 10 7 9 4 C9 3.01 9 2.02 9 1 C7.02 2.32 5.04 3.64 3 5 C3.33 3.68 3.66 2.36 4 1 C3.01 1 2.02 1 1 1 C0.67 2.32 0.34 3.64 0 5 C0 3.35 0 1.7 0 0 Z " fill="#CFCECA" transform="translate(289,233)"/>
<path d="M0 0 C0.99 0.33 1.98 0.66 3 1 C3.33 2.98 3.66 4.96 4 7 C2.02 7.66 0.04 8.32 -2 9 C-2 9.66 -2 10.32 -2 11 C-2.99 10.67 -3.98 10.34 -5 10 C-4.1875 6.5625 -4.1875 6.5625 -3 3 C-2.01 2.67 -1.02 2.34 0 2 C0 1.34 0 0.68 0 0 Z " fill="#F4F3EE" transform="translate(358,260)"/>
<path d="M0 0 C1.98 0 3.96 0 6 0 C6 0.66 6 1.32 6 2 C6.66 2 7.32 2 8 2 C8 4.64 8 7.28 8 10 C7.01 10 6.02 10 5 10 C5 9.34 5 8.68 5 8 C2.36 7.34 -0.28 6.68 -3 6 C-3 5.67 -3 5.34 -3 5 C-1.02 4.67 0.96 4.34 3 4 C2.67 3.01 2.34 2.02 2 1 C1.34 0.67 0.68 0.34 0 0 Z " fill="#CECDCA" transform="translate(332,233)"/>
<path d="M0 0 C5.28 0 10.56 0 16 0 C16 1.32 16 2.64 16 4 C12.535 5.485 12.535 5.485 9 7 C9 6.34 9 5.68 9 5 C8.34 5 7.68 5 7 5 C7 4.34 7 3.68 7 3 C7.66 3 8.32 3 9 3 C9 2.34 9 1.68 9 1 C8.01 1.33 7.02 1.66 6 2 C3.99124558 1.72428861 1.98821313 1.39764263 0 1 C0 0.67 0 0.34 0 0 Z " fill="#D5D4D1" transform="translate(353,233)"/>
<path d="M0 0 C0.66 0 1.32 0 2 0 C2 0.66 2 1.32 2 2 C2.66 2 3.32 2 4 2 C3.20822838 5.82689618 1.79541463 8.20458537 -1 11 C-3.125 10.625 -3.125 10.625 -5 10 C-4.34 7.69 -3.68 5.38 -3 3 C-2.01 3 -1.02 3 0 3 C0 2.01 0 1.02 0 0 Z " fill="#F5F4EF" transform="translate(157,255)"/>
<path d="M0 0 C0.598125 0.226875 1.19625 0.45375 1.8125 0.6875 C1.89476668 3.73136724 1.78858217 5.75925348 0.8125 8.6875 C-0.1775 8.3575 -1.1675 8.0275 -2.1875 7.6875 C-2.5175 8.0175 -2.8475 8.3475 -3.1875 8.6875 C-3.8475 8.6875 -4.5075 8.6875 -5.1875 8.6875 C-5.55003776 3.24943353 -5.55003776 3.24943353 -3.9375 0.75 C-2.1875 -0.3125 -2.1875 -0.3125 0 0 Z " fill="#F4F4EF" transform="translate(240.1875,228.3125)"/>
<path d="M0 0 C2.97 0.495 2.97 0.495 6 1 C6 1.99 6 2.98 6 4 C6.31421071 6.00309329 6.6451046 8.00371336 7 10 C5.02 10.99 5.02 10.99 3 12 C2.49166409 10.75336669 1.99368855 9.50250613 1.5 8.25 C1.2215625 7.55390625 0.943125 6.8578125 0.65625 6.140625 C0 4 0 4 0 0 Z " fill="#F2F1ED" transform="translate(317,234)"/>
<path d="M0 0 C1.32 0.33 2.64 0.66 4 1 C4 2.65 4 4.3 4 6 C-3.26 6 -10.52 6 -18 6 C-18 5.67 -18 5.34 -18 5 C-16.92878906 4.95101563 -15.85757812 4.90203125 -14.75390625 4.8515625 C-13.35674361 4.77654706 -11.9596095 4.7009987 -10.5625 4.625 C-9.85544922 4.5940625 -9.14839844 4.563125 -8.41992188 4.53125 C-6.60760812 4.42719371 -4.80182012 4.22080108 -3 4 C-2.67 3.34 -2.34 2.68 -2 2 C-1.34 2 -0.68 2 0 2 C0 1.34 0 0.68 0 0 Z " fill="#C2C2BF" transform="translate(309,270)"/>
<path d="M0 0 C0.66 0.33 1.32 0.66 2 1 C1.67 1.66 1.34 2.32 1 3 C0.34 3 -0.32 3 -1 3 C-1.33 4.32 -1.66 5.64 -2 7 C-0.68 7.33 0.64 7.66 2 8 C-4.4 11.07692308 -4.4 11.07692308 -7.4375 10.6875 C-7.953125 10.460625 -8.46875 10.23375 -9 10 C-9 9.34 -9 8.68 -9 8 C-4.52941176 4 -4.52941176 4 -2 4 C-2 3.34 -2 2.68 -2 2 C-1.34 2 -0.68 2 0 2 C0 1.34 0 0.68 0 0 Z " fill="#A8A9A5" transform="translate(246,162)"/>
<path d="M0 0 C0.66 1.32 1.32 2.64 2 4 C2.66 4 3.32 4 4 4 C4 5.32 4 6.64 4 8 C3.34 8 2.68 8 2 8 C2.33 9.32 2.66 10.64 3 12 C2.01 12 1.02 12 0 12 C-0.66 12.66 -1.32 13.32 -2 14 C-2.21192221 8.80790596 -1.5912689 4.873261 0 0 Z " fill="#D1D0CC" transform="translate(155,247)"/>
<path d="M0 0 C0.99 0 1.98 0 3 0 C3 0.99 3 1.98 3 3 C3.45375 2.505 3.9075 2.01 4.375 1.5 C6 0 6 0 8 0 C8.33 1.32 8.66 2.64 9 4 C8.401875 4.061875 7.80375 4.12375 7.1875 4.1875 C4.12856542 5.3236757 3.44958901 7.17330142 2 10 C-0.09350689 6.5980513 -0.17942163 3.94727588 0 0 Z " fill="#F3F2EE" transform="translate(290,234)"/>
<path d="M0 0 C0.89203125 0.10183594 1.7840625 0.20367187 2.703125 0.30859375 C3.37859375 0.39238281 4.0540625 0.47617188 4.75 0.5625 C4.75 1.2225 4.75 1.8825 4.75 2.5625 C-2.67857143 3.84821429 -2.67857143 3.84821429 -6.25 2.5625 C-6.25 3.2225 -6.25 3.8825 -6.25 4.5625 C-7.57 4.2325 -8.89 3.9025 -10.25 3.5625 C-9.92 2.5725 -9.59 1.5825 -9.25 0.5625 C-6.11637016 -0.72906365 -3.31158531 -0.39216142 0 0 Z " fill="#F4F3EF" transform="translate(357.25,233.4375)"/>
<path d="M0 0 C1.99825961 2.99738941 2.27550398 3.63347508 2.25 7 C2.25515625 7.680625 2.2603125 8.36125 2.265625 9.0625 C2 11 2 11 0 14 C-1.32 13.67 -2.64 13.34 -4 13 C-4 11.68 -4 10.36 -4 9 C-3.34 9 -2.68 9 -2 9 C-1.67 8.01 -1.34 7.02 -1 6 C-0.67 5.34 -0.34 4.68 0 4 C0 2.68 0 1.36 0 0 Z " fill="#BDBEBA" transform="translate(286,262)"/>
<path d="M0 0 C1.98 0.495 1.98 0.495 4 1 C4 3.31 4 5.62 4 8 C2.35 8 0.7 8 -1 8 C-1.125 2.25 -1.125 2.25 0 0 Z " fill="#EEEFEB" transform="translate(264,143)"/>
<path d="M0 0 C0.33 1.32 0.66 2.64 1 4 C-0.7578125 4.9765625 -2.515625 5.953125 -4.2734375 6.9296875 C-6.1612614 8.00897274 -6.1612614 8.00897274 -8 10 C-8 9.01 -8 8.02 -8 7 C-8.99 6.67 -9.98 6.34 -11 6 C-9.9275 5.566875 -8.855 5.13375 -7.75 4.6875 C-4.83727354 3.44678487 -2.43963834 2.04929621 0 0 Z " fill="#C2C2BF" transform="translate(218,268)"/>
<path d="M0 0 C2.1640625 -0.29296875 2.1640625 -0.29296875 4.625 -0.1875 C5.44226563 -0.16042969 6.25953125 -0.13335937 7.1015625 -0.10546875 C8.04128906 -0.05326172 8.04128906 -0.05326172 9 0 C8.67 1.65 8.34 3.3 8 5 C6.68 5 5.36 5 4 5 C4 3.68 4 2.36 4 1 C2.02 1.66 0.04 2.32 -2 3 C-1.34 2.01 -0.68 1.02 0 0 Z " fill="#C1C0BC" transform="translate(275,233)"/>
<path d="M0 0 C0.66 0 1.32 0 2 0 C2.33 2.64 2.66 5.28 3 8 C2.67 7.34 2.34 6.68 2 6 C0.35636866 5.27840576 -1.31050386 4.60648579 -3 4 C-2.67 3.34 -2.34 2.68 -2 2 C-1.34 2 -0.68 2 0 2 C0 1.34 0 0.68 0 0 Z " fill="#C6C8C2" transform="translate(361,267)"/>
<path d="M0 0 C0.99 0.33 1.98 0.66 3 1 C3.33 2.98 3.66 4.96 4 7 C3.01 7.495 3.01 7.495 2 8 C1.01 7.67 0.02 7.34 -1 7 C-0.67 4.69 -0.34 2.38 0 0 Z " fill="#EBEBE6" transform="translate(358,260)"/>
<path d="M0 0 C1.875 0.125 1.875 0.125 4 1 C5.64661571 4.6068725 6.27162597 6.1851221 5 10 C4.34 9.67 3.68 9.34 3 9 C3 7.68 3 6.36 3 5 C2.01 5.495 2.01 5.495 1 6 C0.67 4.02 0.34 2.04 0 0 Z " fill="#B2B1A5" transform="translate(308,233)"/>
<path d="M0 0 C2 3 2 3 2 5 C2.66 5.33 3.32 5.66 4 6 C3.34 6 2.68 6 2 6 C1.67 6.66 1.34 7.32 1 8 C0.34 7.67 -0.32 7.34 -1 7 C-1.33 8.32 -1.66 9.64 -2 11 C-1 3.57142857 -1 3.57142857 0 0 Z " fill="#C8C7C4" transform="translate(158,236)"/>
<path d="M0 0 C3 1 3 1 4.1875 3.0625 C4.455625 3.701875 4.72375 4.34125 5 5 C2.69 5 0.38 5 -2 5 C-1.125 1.125 -1.125 1.125 0 0 Z " fill="#F5F3F0" transform="translate(331,233)"/>
<path d="M0 0 C0.99 0 1.98 0 3 0 C3.33 2.31 3.66 4.62 4 7 C2.68 6.34 1.36 5.68 0 5 C0 3.35 0 1.7 0 0 Z " fill="#F6F5F0" transform="translate(271,250)"/>
<path d="M0 0 C0.66 0 1.32 0 2 0 C2 2.66666667 2 5.33333333 2 8 C0.68 8.33 -0.64 8.66 -2 9 C-1.34 6.03 -0.68 3.06 0 0 Z " fill="#F4F3EF" transform="translate(157,243)"/>
<path d="M0 0 C0.33 0.99 0.66 1.98 1 3 C0.34 3 -0.32 3 -1 3 C-1.12375 3.61875 -1.2475 4.2375 -1.375 4.875 C-2 7 -2 7 -4 9 C-4.625 6.625 -4.625 6.625 -5 4 C-4.34 3.34 -3.68 2.68 -3 2 C-2.01 2 -1.02 2 0 2 C0 1.34 0 0.68 0 0 Z " fill="#C5C5C1" transform="translate(231,275)"/>
<path d="M0 0 C3.39914975 1.13304992 4.05254451 2.12518475 6 5 C4.25 5.75 4.25 5.75 2 6 C-0.25 4.0625 -0.25 4.0625 -2 2 C-1.34 1.34 -0.68 0.68 0 0 Z " fill="#F2F3EF" transform="translate(279,270)"/>
<path d="M0 0 C0.99 0.66 1.98 1.32 3 2 C1.35 2 -0.3 2 -2 2 C-2 4.31 -2 6.62 -2 9 C-3.74627478 6.38058783 -4.38722388 4.96175123 -5 2 C-2.6875 0.875 -2.6875 0.875 0 0 Z " fill="#AAAAA8" transform="translate(337,259)"/>
<path d="M0 0 C0.66 0.66 1.32 1.32 2 2 C0.68 3.65 -0.64 5.3 -2 7 C-2.66 6.34 -3.32 5.68 -4 5 C-4 4.01 -4 3.02 -4 2 C-2.68 1.34 -1.36 0.68 0 0 Z " fill="#F3F3F0" transform="translate(302,247)"/>
<path d="M0 0 C0.66 0.33 1.32 0.66 2 1 C2 2.98 2 4.96 2 7 C1.01 7.33 0.02 7.66 -1 8 C-1.125 2.25 -1.125 2.25 0 0 Z " fill="#F3F4F0" transform="translate(255,247)"/>
<path d="M0 0 C2.64 0 5.28 0 8 0 C6.35 1.65 4.7 3.3 3 5 C3.33 3.68 3.66 2.36 4 1 C3.01 1 2.02 1 1 1 C0.67 2.32 0.34 3.64 0 5 C0 3.35 0 1.7 0 0 Z " fill="#BFBEBB" transform="translate(289,233)"/>
<path d="M0 0 C-0.66 1.32 -1.32 2.64 -2 4 C-3.65 3.67 -5.3 3.34 -7 3 C-7 2.34 -7 1.68 -7 1 C-4.53721199 -0.231394 -2.7204945 -0.07159196 0 0 Z " fill="#F3F4EE" transform="translate(261,153)"/>
<path d="M0 0 C0.33 0 0.66 0 1 0 C1.06058594 0.61488281 1.12117188 1.22976563 1.18359375 1.86328125 C1.26738281 2.67152344 1.35117187 3.47976563 1.4375 4.3125 C1.51871094 5.11300781 1.59992188 5.91351563 1.68359375 6.73828125 C1.95265693 9.16087179 1.95265693 9.16087179 3 12 C2.34 12.66 1.68 13.32 1 14 C0 13 0 13 -0.09765625 10.05859375 C-0.08605469 8.86363281 -0.07445312 7.66867187 -0.0625 6.4375 C-0.05347656 5.23996094 -0.04445313 4.04242188 -0.03515625 2.80859375 C-0.02355469 1.88175781 -0.01195312 0.95492188 0 0 Z " fill="#F8F7F2" transform="translate(292,256)"/>
<path d="M0 0 C0.99 0 1.98 0 3 0 C3.33 1.98 3.66 3.96 4 6 C2.68 6 1.36 6 0 6 C0 4.02 0 2.04 0 0 Z " fill="#F4F3EF" transform="translate(153,270)"/>
<path d="M0 0 C1.32 0.66 2.64 1.32 4 2 C2.71034824 3.37562854 1.37310707 4.70766393 0 6 C-0.66 6 -1.32 6 -2 6 C-1.34 4.02 -0.68 2.04 0 0 Z " fill="#CFCECB" transform="translate(280,209)"/>
<path d="M0 0 C0.99 0.33 1.98 0.66 3 1 C3 1.66 3 2.32 3 3 C1.35 3.66 -0.3 4.32 -2 5 C-2 3.68 -2 2.36 -2 1 C-1.34 0.67 -0.68 0.34 0 0 Z " fill="#F2F3EE" transform="translate(221,267)"/>
<path d="M0 0 C2 3.75 2 3.75 2 6 C1.34 6 0.68 6 0 6 C0 6.66 0 7.32 0 8 C-1.65 8 -3.3 8 -5 8 C-3.68 7.67 -2.36 7.34 -1 7 C-1.33 6.01 -1.66 5.02 -2 4 C-1.34 4 -0.68 4 0 4 C0 2.68 0 1.36 0 0 Z " fill="#9D9D9B" transform="translate(273,261)"/>
<path d="M0 0 C0.33 1.32 0.66 2.64 1 4 C1.66 4 2.32 4 3 4 C3.33 4.99 3.66 5.98 4 7 C3.01 8.485 3.01 8.485 2 10 C0.39644899 6.49223216 -0.22036864 3.85645121 0 0 Z " fill="#B3B4B0" transform="translate(263,255)"/>
<path d="M0 0 C0 0.99 0 1.98 0 3 C-2.64 2.67 -5.28 2.34 -8 2 C-7 0 -7 0 -5.125 -0.6875 C-3 -1 -3 -1 0 0 Z " fill="#F2F2F1" transform="translate(310,251)"/>
</svg>
